# xmcd
#
# Track frame offsets:
#	183
#	58283
#	99035
#	152213
#	201833
#	231558
#	252113
#	261270
#
# Disc length: 3771 seconds
#
# Revision: 4
# Processed by: cddbd v1.5.2PL0 Copyright (c) Steve Scherf et al.
# Submitted via: dBpowerAMP V4.0
#
DISCID=6d0eb908
DTITLE=Philharmonia Slavonica / Smetana / My Country / The bartered bride
DYEAR=
DGENRE=classical
TTITLE0=Smetana, Die Moldau -mein Vaterland
TTITLE1=Smetana, Sárka -mein Vaterland
TTITLE2=Smetana, Aus Böhmens Hain und Flur -mein Vaterland
TTITLE3=Smetana, Tábor -mein Vaterland
TTITLE4=Smetana, Overture -die verkaufte Braut
TTITLE5=Smetana, Polka -die verkaufte Braut
TTITLE6=Smetana, Furiant -die verkaufte Braut
TTITLE7=Smetana, Skocná -die verkaufte Braut
EXTD=
EXTT0=
EXTT1=
EXTT2=
EXTT3=
EXTT4=
EXTT5=
EXTT6=
EXTT7=
PLAYORDER=
.
